#!OML:ASF H:\LiuWeirdWalks\Patient Classification 1\Patient 1\Session 1\male.ASF
:FULLY-SPECIFIED
:DEGREES
536
root 1.76419 18.13 -13.5816 2.13302 -0.113566 -0.543171
lowerback 4.25178 -0.507466 -0.43129
upperback -0.786761 -0.608283 2.9633
thorax -3.15979 -0.267574 3.34348
lowerneck -15.5756 0.801268 3.63139
upperneck 21.8395 1.76684 -6.56627
head 9.55964 0.38254 -2.66797
rclavicle 4.07509e-015 -7.95139e-016
rhumerus -38.3117 -7.7588 -76.5733
rradius 35.8609
rwrist -11.5506
rhand -17.8399 -3.74598
rfingers 7.12502
rthumb 8.42483 -33.5579
lclavicle 4.07509e-015 -7.95139e-016
lhumerus -39.8282 -4.3399 91.2232
lradius 31.4987
lwrist 10.1772
lhand -10.3409 -0.292156
lfingers 7.12502
lthumb 15.6553 29.0944
rfemur -6.31388 -3.83946 15.076
rtibia 55.4616
rfoot 8.41389 -1.82968
rtoes -6.34832
lfemur -16.2106 0.0693374 -22.6399
ltibia 24.6115
lfoot -5.89751 8.8187
ltoes -7.72849
537
root 1.78401 18.1286 -13.5207 1.96771 -0.0520382 -0.312974
lowerback 4.37046 -0.464018 -0.713792
upperback -0.730677 -0.567457 2.90672
thorax -3.1691 -0.242935 3.44265
lowerneck -15.5935 0.768295 3.585
upperneck 21.8475 1.72626 -6.53818
head 9.56283 0.36274 -2.65562
rclavicle -1.61513e-014 -1.03368e-014
rhumerus -38.1931 -7.70333 -76.6518
rradius 36.0447
rwrist -11.546
rhand -17.8441 -3.69009
rfingers 7.12502
rthumb 8.42081 -33.5022
lclavicle -1.61513e-014 -1.03368e-014
lhumerus -39.8119 -4.33901 91.1216
lradius 31.5677
lwrist 10.2109
lhand -10.5148 -0.49256
lfingers 7.12502
lthumb 15.4878 28.9071
rfemur -7.3425 -4.07523 14.6715
rtibia 57.3653
rfoot 9.08665 -1.83205
rtoes -3.48572
lfemur -15.6876 0.0224061 -22.9768
ltibia 24.3869
lfoot -6.0056 8.85278
ltoes -7.34262
538
root 1.80333 18.1267 -13.4603 1.80744 -0.00496423 -0.0940764
lowerback 4.46491 -0.410243 -0.970887
upperback -0.661097 -0.512545 2.8458
thorax -3.15235 -0.212319 3.52141
lowerneck -15.5583 0.726381 3.54987
upperneck 21.769 1.66997 -6.52163
head 9.52491 0.33686 -2.64916
rclavicle -8.64713e-015 -4.77083e-015
rhumerus -38.0586 -7.67868 -76.7267
rradius 36.2145
rwrist -11.527
rhand -17.8498 -3.65554
rfingers 7.12502
rthumb 8.41531 -33.4679
lclavicle -8.64713e-015 -4.77083e-015
lhumerus -39.7526 -4.34522 91.0099
lradius 31.6297
lwrist 10.2793
lhand -10.6971 -0.568801
lfingers 7.12502
lthumb 15.3123 28.8443
rfemur -8.36033 -4.29949 14.2952
rtibia 59.1769
rfoot 9.23428 -2.07097
rtoes -1.36564
lfemur -15.1874 -0.00412364 -23.2973
ltibia 24.1969
lfoot -6.13017 8.87338
ltoes -6.91748
539
root 1.82223 18.1244 -13.4005 1.65049 0.0401754 0.108857
lowerback 4.54033 -0.355026 -1.20069
upperback -0.582736 -0.454703 2.78518
thorax -3.11657 -0.181222 3.58445
lowerneck -15.5342 0.67926 3.5357
upperneck 21.6781 1.60518 -6.52622
head 9.48466 0.306301 -2.65452
rclavicle -5.11871e-015 -2.14687e-014
rhumerus -37.9081 -7.67755 -76.7976
rradius 36.3589
rwrist -11.4979
rhand -17.8696 -3.63761
rfingers 7.12502
rthumb 8.3962 -33.4507
lclavicle -5.11871e-015 -2.14687e-014
lhumerus -39.6689 -4.33146 90.884
lradius 31.6872
lwrist 10.3703
lhand -10.8945 -0.57295
lfingers 7.12502
lthumb 15.1222 28.8546
rfemur -9.3608 -4.52521 13.9531
rtibia 60.8792
rfoot 8.89459 -2.56462
rtoes 0.0333336
lfemur -14.7077 -0.0295515 -23.5969
ltibia 24.0393
lfoot -6.27795 8.89408
ltoes -6.46719
540
root 1.84024 18.1216 -13.3412 1.49682 0.0899277 0.280983
lowerback 4.60932 -0.30459 -1.39647
upperback -0.508757 -0.401188 2.73205
thorax -3.08188 -0.152913 3.6363
lowerneck -15.4637 0.636476 3.52591
upperneck 21.588 1.54687 -6.53276
head 9.43643 0.279619 -2.66018
rclavicle -8.05078e-015 -2.22639e-014
rhumerus -37.76 -7.67766 -76.8683
rradius 36.479
rwrist -11.466
rhand -17.9001 -3.63155
rfingers 7.12502
rthumb 8.3667 -33.4458
lclavicle -8.05078e-015 -2.22639e-014
lhumerus -39.587 -4.2854 90.7417
lradius 31.7416
lwrist 10.4773
lhand -11.1075 -0.544961
lfingers 7.12502
lthumb 14.9169 28.8979
rfemur -10.3444 -4.75678 13.6676
rtibia 62.4518
rfoot 8.15545 -3.31794
rtoes 0.764417
lfemur -14.2477 -0.0485854 -23.8581
ltibia 23.9071
lfoot -6.43501 8.90259
ltoes -6.05968
541
root 1.85736 18.1192 -13.2822 1.34132 0.166473 0.424255
lowerback 4.68302 -0.264736 -1.55659
upperback -0.441228 -0.359679 2.68331
thorax -3.05601 -0.131083 3.67348
lowerneck -15.4103 0.598194 3.52962
upperneck 21.5344 1.49398 -6.54437
head 9.40462 0.255425 -2.67003
rclavicle 4.17448e-015 1.59028e-014
rhumerus -37.6383 -7.66911 -76.9414
rradius 36.5974
rwrist -11.4244
rhand -17.9038 -3.59617
rfingers 7.12502
rthumb 8.36321 -33.4106
lclavicle 4.17448e-015 1.59028e-014
lhumerus -39.5199 -4.21323 90.5838
lradius 31.8078
lwrist 10.6363
lhand -11.3051 -0.464202
lfingers 7.12502
lthumb 14.7266 28.9927
rfemur -11.3008 -5.01434 13.4366
rtibia 63.8787
rfoot 7.13488 -4.30297
rtoes 0.933697
lfemur -13.7978 -0.0707626 -24.0842
ltibia 23.7947
lfoot -6.59932 8.89873
ltoes -5.63577
542
root 1.87358 18.117 -13.2236 1.18528 0.272821 0.538918
lowerback 4.75776 -0.24301 -1.6912
upperback -0.38218 -0.340579 2.64631
thorax -3.03798 -0.120624 3.71013
lowerneck -15.3497 0.566342 3.51483
upperneck 21.5257 1.45171 -6.53314
head 9.38752 0.23692 -2.66828
rclavicle -4.62174e-015 3.57812e-014
rhumerus -37.5306 -7.6351 -77.0143
rradius 36.6969
rwrist -11.3801
rhand -17.9064 -3.56215
rfingers 7.12502
rthumb 8.36071 -33.3767
lclavicle -4.62174e-015 3.57812e-014
lhumerus -39.4745 -4.08074 90.4042
lradius 31.8739
lwrist 10.7843
lhand -11.4959 -0.4422
lfingers 7.12502
lthumb 14.5427 29.028
rfemur -12.2309 -5.29663 13.2592
rtibia 65.1492
rfoot 5.97662 -5.44194
rtoes 0.765073
lfemur -13.358 -0.115217 -24.2752
ltibia 23.698
lfoot -6.7609 8.89417
ltoes -5.46235
543
root 1.88893 18.1152 -13.1654 1.02677 0.409394 0.623274
lowerback 4.83413 -0.236432 -1.78999
upperback -0.320816 -0.339558 2.61687
thorax -3.01725 -0.119843 3.73564
lowerneck -15.3625 0.54745 3.51897
upperneck 21.5921 1.42644 -6.52917
head 9.41158 0.225326 -2.67219
rclavicle 6.36111e-015 1.35174e-014
rhumerus -37.407 -7.60771 -77.0846
rradius 36.7572
rwrist -11.3133
rhand -17.8917 -3.50797
rfingers 7.12502
rthumb 8.37488 -33.3219
lclavicle 6.36111e-015 1.35174e-014
lhumerus -39.4221 -3.92017 90.2096
lradius 31.9311
lwrist 10.9257
lhand -11.6775 -0.465064
lfingers 7.12502
lthumb 14.3678 29.0177
rfemur -13.1342 -5.59455 13.1378
rtibia 66.2594
rfoot 4.81766 -6.66058
rtoes 0.569632
lfemur -12.9218 -0.189673 -24.4302
ltibia 23.6082
lfoot -6.91457 8.89684
ltoes -5.31055
544
root 1.90397 18.1134 -13.1077 0.870143 0.564789 0.687855
lowerback 4.90068 -0.238135 -1.85749
upperback -0.258724 -0.347732 2.58946
thorax -2.98965 -0.124298 3.74611
lowerneck -15.3173 0.534124 3.52887
upperneck 21.631 1.40585 -6.51857
head 9.41538 0.218273 -2.67322
rclavicle -1.39646e-014 8.74653e-015
rhumerus -37.2839 -7.5938 -77.1465
rradius 36.7888
rwrist -11.2425
rhand -17.8618 -3.46528
rfingers 7.12502
rthumb 8.40369 -33.2781
lclavicle -1.39646e-014 8.74653e-015
lhumerus -39.3745 -3.75761 90.0128
lradius 31.9917
lwrist 11.0641
lhand -11.853 -0.469451
lfingers 7.12502
lthumb 14.1987 29.0253
rfemur -14.021 -5.90209 13.0534
rtibia 67.2095
rfoot 3.73768 -7.8647
rtoes 0.495259
lfemur -12.494 -0.291704 -24.5646
ltibia 23.5268
lfoot -7.06337 8.91593
ltoes -5.13839
545
root 1.91894 18.1112 -13.0506 0.72006 0.735567 0.763344
lowerback 4.95951 -0.248567 -1.93337
upperback -0.204144 -0.367954 2.56205
thorax -2.96445 -0.134535 3.7622
lowerneck -15.2721 0.520703 3.518
upperneck 21.6804 1.38695 -6.49134
head 9.42271 0.212057 -2.66493
rclavicle 4.72114e-015 1.90833e-014
rhumerus -37.1651 -7.57283 -77.1996
rradius 36.7945
rwrist -11.188
rhand -17.8455 -3.46398
rfingers 7.12502
rthumb 8.41943 -33.2762
lclavicle 4.72114e-015 1.90833e-014
lhumerus -39.3474 -3.58744 89.8238
lradius 32.0614
lwrist 11.2114
lhand -12.0486 -0.488544
lfingers 7.12502
lthumb 14.0102 29.0193
rfemur -14.8943 -6.21164 12.9637
rtibia 68.0031
rfoot 2.77334 -8.97489
rtoes 0.57724
lfemur -12.0794 -0.418725 -24.7149
ltibia 23.4546
lfoot -7.21029 8.95535
ltoes -4.94694
546
root 1.93383 18.1083 -12.9939 0.575173 0.910481 0.835513
lowerback 5.01995 -0.261977 -2.0017
upperback -0.162228 -0.391643 2.5344
thorax -2.95297 -0.146255 3.77419
lowerneck -15.1732 0.514656 3.53269
upperneck 21.6968 1.37544 -6.48071
head 9.40915 0.210649 -2.66481
rclavicle -2.60905e-015 5.56597e-015
rhumerus -37.068 -7.55109 -77.2433
rradius 36.7794
rwrist -11.1456
rhand -17.832 -3.50104
rfingers 7.12502
rthumb 8.43244 -33.3127
lclavicle -2.60905e-015 5.56597e-015
lhumerus -39.3501 -3.42944 89.6456
lradius 32.1445
lwrist 11.3352
lhand -12.2464 -0.466086
lfingers 7.12502
lthumb 13.8195 29.0549
rfemur -15.7513 -6.50685 12.8837
rtibia 68.6423
rfoot 1.9134 -9.97199
rtoes 0.728201
lfemur -11.6788 -0.555472 -24.8651
ltibia 23.3962
lfoot -7.3582 9.01175
ltoes -4.74728
